<svg width="36" height="36" viewBox="0 0 36 36" fill="none" xmlns="http://www.w3.org/2000/svg">
<path d="M20.9166 3.41666H9.24998C8.47643 3.41666 7.73457 3.72395 7.18758 4.27094C6.6406 4.81792 6.33331 5.55978 6.33331 6.33333V29.6667C6.33331 30.4402 6.6406 31.1821 7.18758 31.7291C7.73457 32.276 8.47643 32.5833 9.24998 32.5833H26.75C27.5235 32.5833 28.2654 32.276 28.8124 31.7291C29.3594 31.1821 29.6666 30.4402 29.6666 29.6667V12.1667L20.9166 3.41666Z" stroke="#1E232A" stroke-width="2" stroke-linecap="round" stroke-linejoin="round"/>
<path d="M20.9167 3.41666V12.1667H29.6667" stroke="#1E232A" stroke-width="2" stroke-linecap="round" stroke-linejoin="round"/>
<path d="M23.8334 19.4583H12.1667" stroke="#1E232A" stroke-width="2" stroke-linecap="round" stroke-linejoin="round"/>
<path d="M23.8334 25.2917H12.1667" stroke="#1E232A" stroke-width="2" stroke-linecap="round" stroke-linejoin="round"/>
<path d="M15.0834 13.625H13.625H12.1667" stroke="#1E232A" stroke-width="2" stroke-linecap="round" stroke-linejoin="round"/>
</svg>
