<svg width="36" height="36" viewBox="0 0 36 36" fill="none" xmlns="http://www.w3.org/2000/svg">
<g clip-path="url(#clip0_2_7)">
<path d="M18 22.375C20.4162 22.375 22.375 20.4162 22.375 18C22.375 15.5838 20.4162 13.625 18 13.625C15.5838 13.625 13.625 15.5838 13.625 18C13.625 20.4162 15.5838 22.375 18 22.375Z" stroke="#1E232A" stroke-width="2" stroke-linecap="round" stroke-linejoin="round"/>
<path d="M28.7916 22.375C28.5975 22.8149 28.5396 23.3028 28.6254 23.7759C28.7112 24.2489 28.9367 24.6855 29.2729 25.0292L29.3604 25.1167C29.6316 25.3875 29.8467 25.7092 29.9935 26.0633C30.1403 26.4174 30.2158 26.7969 30.2158 27.1802C30.2158 27.5635 30.1403 27.943 29.9935 28.2971C29.8467 28.6512 29.6316 28.9729 29.3604 29.2437C29.0895 29.5149 28.7678 29.7301 28.4138 29.8768C28.0597 30.0236 27.6801 30.0992 27.2969 30.0992C26.9136 30.0992 26.534 30.0236 26.1799 29.8768C25.8259 29.7301 25.5042 29.5149 25.2333 29.2437L25.1458 29.1562C24.8021 28.82 24.3656 28.5945 23.8925 28.5087C23.4194 28.423 22.9315 28.4809 22.4916 28.675C22.0603 28.8599 21.6925 29.1668 21.4333 29.5581C21.1742 29.9493 21.0352 30.4078 21.0333 30.8771V31.125C21.0333 31.8985 20.726 32.6404 20.179 33.1874C19.6321 33.7344 18.8902 34.0417 18.1166 34.0417C17.3431 34.0417 16.6012 33.7344 16.0543 33.1874C15.5073 32.6404 15.2 31.8985 15.2 31.125V30.9937C15.1887 30.511 15.0324 30.0429 14.7516 29.6502C14.4707 29.2575 14.0781 28.9583 13.625 28.7917C13.1851 28.5975 12.6972 28.5396 12.2241 28.6254C11.751 28.7112 11.3145 28.9367 10.9708 29.2729L10.8833 29.3604C10.6124 29.6316 10.2908 29.8467 9.93668 29.9935C9.5826 30.1403 9.20307 30.2158 8.81977 30.2158C8.43648 30.2158 8.05694 30.1403 7.70286 29.9935C7.34878 29.8467 7.02711 29.6316 6.75623 29.3604C6.48505 29.0895 6.26992 28.7679 6.12314 28.4138C5.97636 28.0597 5.90081 27.6802 5.90081 27.2969C5.90081 26.9136 5.97636 26.534 6.12314 26.18C6.26992 25.8259 6.48505 25.5042 6.75623 25.2333L6.84373 25.1458C7.17993 24.8021 7.40546 24.3656 7.49124 23.8925C7.57701 23.4194 7.51911 22.9315 7.32498 22.4917C7.14012 22.0603 6.83316 21.6925 6.44191 21.4334C6.05065 21.1743 5.59217 21.0352 5.1229 21.0333H4.87498C4.10143 21.0333 3.35957 20.726 2.81258 20.1791C2.2656 19.6321 1.95831 18.8902 1.95831 18.1167C1.95831 17.3431 2.2656 16.6013 2.81258 16.0543C3.35957 15.5073 4.10143 15.2 4.87498 15.2H5.00623C5.48893 15.1887 5.95707 15.0325 6.34979 14.7516C6.74251 14.4707 7.04165 14.0782 7.20831 13.625C7.40244 13.1851 7.46035 12.6972 7.37457 12.2241C7.28879 11.7511 7.06326 11.3145 6.72706 10.9708L6.63956 10.8833C6.36838 10.6125 6.15325 10.2908 6.00647 9.9367C5.85969 9.58262 5.78414 9.20309 5.78414 8.81979C5.78414 8.4365 5.85969 8.05696 6.00647 7.70288C6.15325 7.3488 6.36838 7.02713 6.63956 6.75625C6.91044 6.48507 7.23212 6.26994 7.5862 6.12316C7.94027 5.97638 8.31981 5.90083 8.7031 5.90083C9.0864 5.90083 9.46594 5.97638 9.82001 6.12316C10.1741 6.26994 10.4958 6.48507 10.7666 6.75625L10.8541 6.84375C11.1978 7.17995 11.6344 7.40548 12.1075 7.49126C12.5805 7.57703 13.0685 7.51913 13.5083 7.325H13.625C14.0563 7.14014 14.4242 6.83318 14.6833 6.44193C14.9424 6.05067 15.0814 5.59219 15.0833 5.12292V4.875C15.0833 4.10145 15.3906 3.35959 15.9376 2.81261C16.4846 2.26562 17.2264 1.95833 18 1.95833C18.7735 1.95833 19.5154 2.26562 20.0624 2.81261C20.6094 3.35959 20.9166 4.10145 20.9166 4.875V5.00625C20.9185 5.47552 21.0576 5.93401 21.3167 6.32526C21.5758 6.71652 21.9436 7.02347 22.375 7.20833C22.8148 7.40246 23.3028 7.46037 23.7758 7.37459C24.2489 7.28881 24.6854 7.06328 25.0291 6.72708L25.1166 6.63958C25.3875 6.3684 25.7092 6.15327 26.0633 6.00649C26.4174 5.85971 26.7969 5.78416 27.1802 5.78416C27.5635 5.78416 27.943 5.85971 28.2971 6.00649C28.6512 6.15327 28.9728 6.3684 29.2437 6.63958C29.5149 6.91046 29.73 7.23214 29.8768 7.58622C30.0236 7.94029 30.0991 8.31983 30.0991 8.70312C30.0991 9.08642 30.0236 9.46596 29.8768 9.82003C29.73 10.1741 29.5149 10.4958 29.2437 10.7667L29.1562 10.8542C28.82 11.1979 28.5945 11.6344 28.5087 12.1075C28.4229 12.5806 28.4809 13.0685 28.675 13.5083V13.625C28.8598 14.0563 29.1668 14.4242 29.5581 14.6833C29.9493 14.9424 30.4078 15.0815 30.8771 15.0833H31.125C31.8985 15.0833 32.6404 15.3906 33.1874 15.9376C33.7344 16.4846 34.0416 17.2265 34.0416 18C34.0416 18.7735 33.7344 19.5154 33.1874 20.0624C32.6404 20.6094 31.8985 20.9167 31.125 20.9167H30.9937C30.5245 20.9185 30.066 21.0576 29.6747 21.3167C29.2835 21.5758 28.9765 21.9437 28.7916 22.375V22.375Z" stroke="#1E232A" stroke-width="2" stroke-linecap="round" stroke-linejoin="round"/>
</g>
<defs>
<clipPath id="clip0_2_7">
<rect width="35" height="35" fill="white" transform="translate(0.5 0.5)"/>
</clipPath>
</defs>
</svg>
