<svg width="40" height="40" viewBox="0 0 40 40" fill="none" xmlns="http://www.w3.org/2000/svg">
<path d="M14.75 5.375H7.375C6.27043 5.375 5.375 6.27043 5.375 7.375V14.75C5.375 15.8546 6.27043 16.75 7.375 16.75H14.75C15.8546 16.75 16.75 15.8546 16.75 14.75V7.375C16.75 6.27043 15.8546 5.375 14.75 5.375Z" stroke="#1E232A" stroke-width="1.8" stroke-linecap="round" stroke-linejoin="round"/>
<path d="M32.625 5.375H25.25C24.1454 5.375 23.25 6.27043 23.25 7.375V14.75C23.25 15.8546 24.1454 16.75 25.25 16.75H32.625C33.7296 16.75 34.625 15.8546 34.625 14.75V7.375C34.625 6.27043 33.7296 5.375 32.625 5.375Z" stroke="#1E232A" stroke-width="1.8" stroke-linecap="round" stroke-linejoin="round"/>
<path d="M32.625 23.25H25.25C24.1454 23.25 23.25 24.1454 23.25 25.25V32.625C23.25 33.7296 24.1454 34.625 25.25 34.625H32.625C33.7296 34.625 34.625 33.7296 34.625 32.625V25.25C34.625 24.1454 33.7296 23.25 32.625 23.25Z" stroke="#1E232A" stroke-width="1.8" stroke-linecap="round" stroke-linejoin="round"/>
<path d="M14.75 23.25H7.375C6.27043 23.25 5.375 24.1454 5.375 25.25V32.625C5.375 33.7296 6.27043 34.625 7.375 34.625H14.75C15.8546 34.625 16.75 33.7296 16.75 32.625V25.25C16.75 24.1454 15.8546 23.25 14.75 23.25Z" stroke="#1E232A" stroke-width="1.8" stroke-linecap="round" stroke-linejoin="round"/>
</svg>
